<?xml version="1.0" encoding="UTF-8" standalone="no"?>
<svg
   xmlns:dc="http://purl.org/dc/elements/1.1/"
   xmlns:cc="http://creativecommons.org/ns#"
   xmlns:rdf="http://www.w3.org/1999/02/22-rdf-syntax-ns#"
   xmlns:svg="http://www.w3.org/2000/svg"
   xmlns="http://www.w3.org/2000/svg"
   id="svg20"
   version="1.1"
   width="78"
   viewBox="0 0 78 78.000001"
   height="78">
  <metadata
     id="metadata26">
    <rdf:RDF>
      <cc:Work
         rdf:about="">
        <dc:format>image/svg+xml</dc:format>
        <dc:type
           rdf:resource="http://purl.org/dc/dcmitype/StillImage" />
        <dc:title></dc:title>
      </cc:Work>
    </rdf:RDF>
  </metadata>
  <defs
     id="defs24" />
  <g
     transform="scale(0.99870508,0.99871959)"
     id="g4504">
    <path
       d="M 78,46.272 V 22 L 38.975,3.0000002 0,22 V 46.272 C 9.164,57.687 23.224,65 39,65 54.775,65 68.836,57.687 78,46.272 Z"
       id="path6"
       style="fill:#da9c44" />
    <g
       id="g4494"
       transform="translate(-11.898865,-2.8804678)">
      <path
         style="fill:#f3f3f3"
         id="path8"
         d="m 19.898865,2.8804678 h 63 c 1.104,0 2,0.895 2,2 V 69.606813 c 0,1.104 -0.746192,0.499261 -1.850189,0.501892 l -62.850189,0.149811 c -1.103997,0.0026 -2.299622,0.751918 -2.299622,-0.352082 V 4.8804678 c 0,-1.105 0.896,-2 2,-2 z" />
      <path
         style="fill:#26a6d1"
         id="path10"
         d="m 38.898865,7.8804678 h 7 l 4,-5 h -7 z m 30,-5 -4,5 h 7 l 4,-5 z m -51,2 v 3 h 3 l 4,-5 h -5 c -1.104,0 -2,0.895 -2,2 z" />
      <path
         style="fill:#e2574c"
         id="path12"
         d="m 51.898865,7.8804678 h 7 l 4,-5 h -7 z m -26,0 h 7 l 4,-5 h -7 z m 57,-5 h -1 l -4,5 h 7 v -3 c 0,-1.105 -0.896,-2 -2,-2 z" />
      <path
         style="fill:#dfe1e2"
         id="path14"
         d="m 74.398865,22.880468 h -17 c -0.828,0 -1.5,0.671 -1.5,1.5 0,0.829 0.672,1.5 1.5,1.5 h 17 c 0.828,0 1.5,-0.671 1.5,-1.5 0,-0.829 -0.672,-1.5 -1.5,-1.5 z m -3,6 h -14 c -0.828,0 -1.5,0.672 -1.5,1.499 0,0.829 0.672,1.501 1.5,1.501 h 14 c 0.828,0 1.5,-0.672 1.5,-1.501 0,-0.827 -0.672,-1.499 -1.5,-1.499 z m -31.483,-4.04 0.682,3.585 -5.699,-8.546 -8,12 c 0,1.105 5.148,2 11.5,2 6.352,0 11.5,-0.895 11.5,-2 l -7,-10 z m 0.983,-4.961 c 1.104,0 2,-0.896 2,-2 0,-1.104 -0.896,-2 -2,-2 -1.104,0 -2,0.896 -2,2 0,1.104 0.896,2 2,2 z m 16.5,0.001 h 17 c 0.828,0 1.5,-0.671 1.5,-1.5 0,-0.829 -0.672,-1.5 -1.5,-1.5 h -17 c -0.828,0 -1.5,0.671 -1.5,1.5 0,0.829 0.672,1.5 1.5,1.5 z" />
    </g>
    <path
       d="M 78.1,78.1 78,22 38.101135,54.119532 0,22 v 56.1 z"
       id="path16"
       style="fill:#f4b459" />
    <path
       d="M 78,22 0,78.1 h 78.101135 z"
       id="path18"
       style="fill:#f6c37a" />
  </g>
</svg>
