<?xml version="1.0" encoding="UTF-8"?>
<svg width="531.9pt" height="531.55pt" version="1.1" viewBox="0 0 531.9 531.55" xmlns="http://www.w3.org/2000/svg" xmlns:cc="http://creativecommons.org/ns#" xmlns:dc="http://purl.org/dc/elements/1.1/" xmlns:rdf="http://www.w3.org/1999/02/22-rdf-syntax-ns#">
<metadata>
<rdf:RDF>
<cc:Work rdf:about="">
<dc:format>image/svg+xml</dc:format>
<dc:type rdf:resource="http://purl.org/dc/dcmitype/StillImage"/>
<dc:title/>
</cc:Work>
</rdf:RDF>
</metadata>
<path d="m140 85.441c-7.2734-7.9336-17.191-11.238-27.109-11.238-50.91 0-50.91 76.695 0 76.695 34.379 0 51.57-41.652 27.109-65.453zm161.32 360.99c19.172 19.836 19.172 50.91 0 70.742-19.836 19.172-50.91 19.172-70.742 0-19.172-19.172-19.172-51.57 0-70.742 7.9336-7.2734 17.852-12.562 29.754-13.883v-70.082c-22.48-1.3242-42.977-10.578-58.844-24.461l-49.586 49.586c7.2734 8.5938 10.578 19.836 10.578 31.074 0 27.109-21.816 49.586-49.586 49.586s-49.586-22.48-49.586-49.586c0-27.77 21.816-50.246 49.586-50.246 11.238 0 21.816 3.9688 31.074 11.238l49.586-49.586c-14.547-15.867-23.141-36.363-24.461-58.844h-70.082c-4.6289 40.992-54.875 58.844-84.629 29.754-19.172-19.836-19.172-51.57 0-70.742 29.754-29.754 80-11.238 84.629 29.754h70.082c1.3242-21.816 9.918-42.977 24.461-58.844l-49.586-49.586c-9.2578 7.2734-19.836 10.578-31.074 10.578-66.117 0-64.793-99.172 0-99.172 12.562 0 25.125 4.6289 35.043 14.547 17.852 17.852 19.836 46.281 3.9688 66.117l49.586 49.586c15.867-14.547 37.023-23.141 58.844-24.461v-70.082c-25.125-2.6445-44.297-23.801-44.297-49.586 0-65.453 99.836-65.453 99.836 0 0 25.785-19.172 46.941-44.297 49.586v70.082c22.48 1.3242 42.977 9.918 58.844 24.461l49.586-49.586c-7.2734-9.2578-11.238-19.836-11.238-31.074 0-27.77 22.48-49.586 50.246-49.586 27.77 0 49.586 21.816 49.586 49.586s-22.48 49.586-49.586 49.586c-11.238 0-22.48-3.3047-31.074-10.578l-49.586 49.586c13.883 15.867 23.141 36.363 24.461 58.844h70.082c1.3242-11.902 6.6133-21.816 13.883-29.754 19.836-19.172 50.91-19.172 70.742 0 19.172 19.172 19.172 50.91 0 70.742-19.172 19.172-51.57 19.172-70.742 0-7.2734-7.9336-12.562-18.512-13.883-29.754h-70.082c-1.3242 21.816-9.918 42.312-24.461 58.844l49.586 49.586c19.172-15.867 48.266-13.883 66.117 3.3047 20.496 12.562 17.191 53.555 0 70.742-23.801 15.207-46.281 23.801-70.742 0-17.191-17.852-19.172-46.281-3.3047-66.117l-49.586-49.586c-16.527 14.547-37.023 23.141-58.844 24.461v70.082c11.238 1.3242 21.816 6.6133 29.754 13.883zm-7.9336 7.9336c-15.207-15.207-39.668-15.207-54.875 0s-15.207 39.668 0 54.875 39.668 15.207 54.875 0c14.547-15.207 14.547-39.668 0-54.875zm-66.117-405.29c0 50.91 77.355 50.91 77.355 0s-77.355-50.91-77.355 0zm163.97 341.82c-14.547 15.207-14.547 39.668 0 54.875 15.207 15.207 39.668 15.207 54.875 0 10.578-18.512 19.836-34.379 0-54.875-15.207-14.547-39.668-14.547-54.875 0zm-278.35-11.238c-21.156 0-38.348 17.191-38.348 39.008 0 21.156 17.191 38.348 38.348 38.348 51.57 0 50.246-77.355 0-77.355zm344.46-267.11c0-21.156-17.191-38.348-38.348-38.348-21.816 0-39.008 17.191-39.008 38.348 0 52.23 77.355 49.586 77.355 0zm-2.6445 180.5c15.207 14.547 39.668 14.547 54.875 0 14.547-15.207 14.547-39.668 0-54.875-15.207-15.207-39.668-15.207-54.875 0s-15.207 39.668 0 54.875zm-432.4-54.875c-15.207 15.207-15.207 39.668 0 54.875 36.363 36.363 89.918-19.172 54.215-54.875-14.547-15.207-39.008-15.207-54.215 0zm183.14-33.059c-67.438 66.777 7.9336 175.21 93.223 139.5 56.199-23.141 71.406-96.527 27.77-139.5-33.719-33.719-87.934-33.719-120.99 0z"/>
<text x="223.75789" y="313.72787" fill="#000000" font-family="Ravenna-Serial-Heavy" font-size="144px" letter-spacing="0px" stroke-width=".75" word-spacing="0px" style="line-height:1.25" xml:space="preserve"><tspan x="223.75789" y="313.72787" stroke-width=".75">6</tspan></text>
</svg>
