<?xml version="1.0" encoding="UTF-8"?>
<svg width="550pt" height="550pt" version="1.1" viewBox="0 0 550 550" xmlns="http://www.w3.org/2000/svg" xmlns:cc="http://creativecommons.org/ns#" xmlns:dc="http://purl.org/dc/elements/1.1/" xmlns:rdf="http://www.w3.org/1999/02/22-rdf-syntax-ns#">
<metadata>
<rdf:RDF>
<cc:Work rdf:about="">
<dc:format>image/svg+xml</dc:format>
<dc:type rdf:resource="http://purl.org/dc/dcmitype/StillImage"/>
<dc:title/>
</cc:Work>
</rdf:RDF>
</metadata>
<path d="m95.87 275c0 6.1836-5.0156 11.199-11.199 11.199-6.1875 0-11.203-5.0156-11.203-11.199 0-6.1875 5.0156-11.203 11.203-11.203 6.1836 0 11.199 5.0156 11.199 11.203"/>
<path d="m140.67 275c0 6.1836-5.0156 11.199-11.203 11.199-6.1836 0-11.199-5.0156-11.199-11.199 0-6.1875 5.0156-11.203 11.199-11.203 6.1875 0 11.203 5.0156 11.203 11.203"/>
<path d="m163.07 107h151.2v22.398h-151.2z" fill="#8a0"/>
<path d="m95.87 118.2c0 6.1836-5.0156 11.199-11.199 11.199-6.1875 0-11.203-5.0156-11.203-11.199 0-6.1875 5.0156-11.199 11.203-11.199 6.1836 0 11.199 5.0117 11.199 11.199" fill="#8a0"/>
<path d="m140.67 118.2c0 6.1836-5.0156 11.199-11.203 11.199-6.1836 0-11.199-5.0156-11.199-11.199 0-6.1875 5.0156-11.199 11.199-11.199 6.1875 0 11.203 5.0117 11.203 11.199" fill="#8a0"/>
<path d="m163.07 420.6h151.2v22.398h-151.2z" fill="#ff2a2a" stroke-width="1.299"/>
<path d="m95.87 431.8c0 6.1875-5.0156 11.203-11.199 11.203-6.1875 0-11.203-5.0156-11.203-11.203 0-6.1836 5.0156-11.199 11.203-11.199 6.1836 0 11.199 5.0156 11.199 11.199" fill="#ff2a2a"/>
<path d="m140.67 431.8c0 6.1875-5.0156 11.203-11.203 11.203-6.1836 0-11.199-5.0156-11.199-11.203 0-6.1836 5.0156-11.199 11.199-11.199 6.1875 0 11.203 5.0156 11.203 11.199" fill="#ff2a2a"/>
<path d="m409.47 129.01v-38.809c0-10.398-4.1289-20.367-11.48-27.719-7.3516-7.3516-17.32-11.48-27.719-11.48h-302.4c-10.398 0-20.367 4.1289-27.719 11.48-7.3516 7.3516-11.48 17.32-11.48 27.719v56c0 10.395 4.1289 20.367 11.48 27.719 7.3516 7.3516 17.32 11.48 27.719 11.48h180.71c-5.2305 7.043-9.8242 14.539-13.719 22.398h-166.99c-10.398 0-20.367 4.1328-27.719 11.484-7.3516 7.3516-11.48 17.32-11.48 27.719v56c0 10.395 4.1289 20.367 11.48 27.719 7.3516 7.3516 17.32 11.48 27.719 11.48h166.99c3.8945 7.8594 8.4883 15.355 13.719 22.398h-180.71c-10.398 0-20.367 4.1289-27.719 11.48-7.3516 7.3516-11.48 17.324-11.48 27.719v56c0 10.398 4.1289 20.367 11.48 27.719 7.3516 7.3516 17.32 11.484 27.719 11.484h302.4c10.398 0 20.367-4.1328 27.719-11.484 7.3516-7.3516 11.48-17.32 11.48-27.719v-38.805c43.105-11.617 78.875-41.691 97.723-82.16s18.848-87.199 0-127.67-54.617-70.543-97.723-82.156zm-189.95 157.19c0.80859 11.406 2.9297 22.68 6.3281 33.598h-157.98c-4.457 0-8.7305-1.7695-11.879-4.918-3.1523-3.1523-4.9219-7.4258-4.9219-11.879v-56c0-4.457 1.7695-8.7305 4.9219-11.883 3.1484-3.1484 7.4219-4.918 11.879-4.918h157.98c-3.3984 10.918-5.5195 22.191-6.3281 33.598h-56.449v22.398zm-151.65-123.2c-4.457 0-8.7305-1.7734-11.879-4.9219-3.1523-3.1523-4.9219-7.4258-4.9219-11.879v-56c0-4.457 1.7695-8.7305 4.9219-11.879 3.1484-3.1523 7.4219-4.9219 11.879-4.9219h302.4c4.457 0 8.7305 1.7695 11.879 4.9219 3.1523 3.1484 4.9219 7.4219 4.9219 11.879v34.551c-43.09-4.8672-86.191 9.0703-118.27 38.25zm319.2 296.8c0 4.457-1.7695 8.7305-4.9219 11.883-3.1484 3.1484-7.4219 4.918-11.879 4.918h-302.4c-4.457 0-8.7305-1.7695-11.879-4.918-3.1523-3.1523-4.9219-7.4258-4.9219-11.883v-56c0-4.4531 1.7695-8.7266 4.9219-11.879 3.1484-3.1484 7.4219-4.918 11.879-4.918h200.93c32.082 29.176 75.184 43.117 118.27 38.246zm-16.801-56c-34.16 0-66.918-13.57-91.074-37.723-24.156-24.156-37.727-56.914-37.727-91.074s13.57-66.922 37.727-91.078c24.156-24.152 56.914-37.723 91.074-37.723s66.922 13.57 91.074 37.723c24.156 24.156 37.727 56.918 37.727 91.078s-13.57 66.918-37.727 91.074c-24.152 24.152-56.914 37.723-91.074 37.723z"/>
<path d="m381.47 179.8c0 6.1875-5.0117 11.203-11.199 11.203-6.1836 0-11.199-5.0156-11.199-11.203 0-6.1836 5.0156-11.199 11.199-11.199 6.1875 0 11.199 5.0156 11.199 11.199"/>
<path d="m381.47 370.2c0 6.1836-5.0117 11.199-11.199 11.199-6.1836 0-11.199-5.0156-11.199-11.199 0-6.1875 5.0156-11.199 11.199-11.199 6.1875 0 11.199 5.0117 11.199 11.199"/>
<path d="m476.67 275c0 6.1836-5.0156 11.199-11.203 11.199-6.1836 0-11.199-5.0156-11.199-11.199 0-6.1875 5.0156-11.203 11.199-11.203 6.1875 0 11.203 5.0156 11.203 11.203"/>
<path d="m286.27 275c0 6.1836-5.0117 11.199-11.199 11.199s-11.199-5.0156-11.199-11.199c0-6.1875 5.0117-11.203 11.199-11.203s11.199 5.0156 11.199 11.203"/>
<path d="m317.07 182.88c-3.9258 2.2656-6.0977 6.6719-5.5078 11.164 0.59375 4.4922 3.832 8.1875 8.2109 9.3555 4.3789 1.1719 9.0312-0.41016 11.785-4.0078 2.7539-3.5977 3.0703-8.5039 0.80078-12.426-3.0977-5.3438-9.9375-7.1719-15.289-4.0859z"/>
<path d="m412.27 347.8c-3.9258 2.2656-6.0977 6.6719-5.5078 11.164 0.59375 4.4961 3.832 8.1875 8.2109 9.3594s9.0312-0.41406 11.785-4.0117c2.7578-3.5977 3.0703-8.5 0.80078-12.422-3.0977-5.3477-9.9375-7.1758-15.289-4.0898z"/>
<path d="m447.1 217.71c-3.9258 2.2656-6.0977 6.6719-5.5078 11.164 0.59375 4.4922 3.832 8.1875 8.2109 9.3555 4.3789 1.1719 9.0312-0.41016 11.785-4.0078 2.7578-3.5977 3.0703-8.5039 0.80078-12.426-3.0977-5.3438-9.9375-7.1719-15.289-4.0859z"/>
<path d="m282.24 312.91c-3.9414 2.25-6.1328 6.6562-5.5547 11.16 0.58203 4.5 3.8242 8.207 8.207 9.3828s9.043-0.41016 11.801-4.0156c2.7539-3.6055 3.0625-8.5156 0.77734-12.438-3.0938-5.3125-9.8906-7.1367-15.23-4.0898z"/>
<path d="m293.44 217.71c-3.9141-2.2891-8.8203-1.9961-12.43 0.75-3.6094 2.7422-5.2109 7.3906-4.0547 11.773 1.1562 4.3828 4.8398 7.6367 9.3359 8.2422 4.4922 0.60547 8.9062-1.5586 11.18-5.4766 3.0977-5.3398 1.2969-12.176-4.0312-15.289z"/>
<path d="m458.3 312.91c-3.9219-2.2695-8.8242-1.957-12.422 0.80078-3.5977 2.7539-5.1797 7.4062-4.0117 11.785 1.1719 4.3789 4.8672 7.6172 9.3594 8.2109 4.4922 0.58984 8.8984-1.582 11.164-5.5078 3.0859-5.3516 1.2578-12.191-4.0898-15.289z"/>
<path d="m423.47 182.88c-3.918-2.2734-8.8242-1.957-12.422 0.80078-3.5977 2.7539-5.1797 7.4062-4.0117 11.785 1.1719 4.375 4.8672 7.6172 9.3594 8.2109 4.4922 0.58984 8.8984-1.582 11.164-5.5078 3.0859-5.3516 1.2578-12.191-4.0898-15.289z"/>
<path d="m328.27 347.8c-3.9219-2.2695-8.8242-1.9531-12.422 0.80078-3.5977 2.7539-5.1797 7.4062-4.0117 11.785 1.1719 4.3789 4.8633 7.6211 9.3594 8.2109 4.4922 0.59375 8.8984-1.582 11.164-5.5078 3.0859-5.3516 1.2578-12.191-4.0898-15.289z"/>
<path d="m420.67 263.8h-39.203v-50.398h-22.398v72.801h61.602z"/>
</svg>
